<?xml version="1.0" standalone="no"?>
<!DOCTYPE svg PUBLIC "-//W3C//DTD SVG 20010904//EN"
 "http://www.w3.org/TR/2001/REC-SVG-20010904/DTD/svg10.dtd">
<svg version="1.0" xmlns="http://www.w3.org/2000/svg"
 width="133.000000pt" height="133.000000pt" viewBox="0 0 133.000000 133.000000"
 preserveAspectRatio="xMidYMid meet">
<metadata>
Created by potrace 1.11, written by Peter Selinger 2001-2013
</metadata>
<g transform="translate(0.000000,133.000000) scale(0.100000,-0.100000)"
fill="#000000" stroke="none">
<path d="M60 1256 c-10 -10 49 -56 69 -56 6 0 11 -4 11 -10 0 -5 4 -10 9 -10
4 0 114 -60 243 -133 129 -74 250 -137 269 -140 24 -5 30 -4 19 3 -13 9 -7 14
13 11 4 0 7 3 7 9 0 5 6 10 14 10 7 0 19 7 26 15 7 8 16 12 21 9 5 -3 9 0 9 6
0 7 7 9 16 6 8 -3 13 -2 10 2 -3 5 16 19 42 33 26 13 53 30 60 37 7 6 18 12
23 12 5 0 11 0 14 0 3 0 14 9 25 20 18 18 39 25 63 21 5 -1 6 3 3 8 -3 5 5 16
19 25 23 15 24 15 18 -1 -3 -12 0 -10 12 5 12 16 23 21 38 17 16 -5 18 -4 8 3
-11 8 -10 12 8 21 12 7 27 9 33 5 6 -4 8 -3 5 3 -8 13 20 26 35 16 7 -3 8 -1
4 6 -4 6 0 14 8 17 19 7 21 33 4 35 -65 7 -1151 2 -1158 -5z"/>
<path d="M37 1166 c-3 -7 -2 -17 2 -22 5 -5 41 -72 81 -149 40 -77 87 -167
105 -200 18 -33 101 -190 185 -350 191 -360 183 -347 195 -349 6 0 11 20 13
47 2 34 7 45 15 40 9 -5 9 -4 0 8 -8 9 -11 46 -9 102 1 49 -2 91 -6 93 -5 3
-5 11 -1 17 10 17 11 47 1 47 -5 0 -6 6 -2 12 12 19 12 48 0 48 -6 0 -6 4 2
12 8 8 8 17 1 31 -8 13 -8 17 -1 13 6 -3 14 -2 17 4 4 6 1 9 -7 8 -14 -3 -18
45 -6 73 4 8 3 21 -2 29 -5 9 -5 19 2 27 7 9 7 13 -1 13 -6 0 -11 7 -11 16 0
8 5 12 10 9 6 -3 10 -1 10 4 0 6 -3 11 -7 11 -5 0 -9 16 -10 37 -1 20 -8 42
-15 48 -14 13 -476 293 -526 319 -25 13 -31 13 -35 2z"/>
<path d="M1165 1131 c-33 -21 -79 -49 -101 -62 -23 -13 -118 -71 -213 -128
l-171 -103 0 -72 c-1 -39 -2 -206 -3 -370 -1 -207 1 -300 9 -303 6 -2 19 12
30 32 10 19 22 35 27 35 4 0 5 5 2 10 -3 6 2 10 12 10 15 0 16 2 3 10 -14 9
-13 11 9 14 5 0 13 5 18 10 5 6 2 6 -6 1 -11 -6 -13 -4 -8 9 4 10 7 20 7 22 0
3 4 2 10 -1 6 -4 7 1 3 11 -4 12 -3 15 5 10 8 -4 10 -2 6 7 -3 8 2 17 10 20 9
4 13 13 10 22 -3 8 -1 15 6 15 6 0 8 5 4 12 -5 8 0 9 17 5 22 -5 22 -5 6 7
-16 13 -16 15 -2 30 9 9 13 16 9 16 -4 0 1 7 12 16 10 8 13 12 6 9 -11 -6 -11
-3 0 14 7 12 17 21 21 21 5 0 7 7 4 15 -4 8 -2 17 4 20 5 4 19 26 30 51 12 24
25 42 29 39 5 -3 12 0 16 6 4 8 3 9 -4 5 -7 -4 -12 -1 -12 8 0 9 4 16 9 16 5
0 12 14 16 30 4 17 11 30 16 30 5 0 11 11 15 25 3 14 10 25 16 25 5 0 6 5 3
10 -3 6 -1 10 6 10 7 0 10 3 6 6 -3 3 3 23 14 44 15 28 25 37 37 33 13 -4 14
-3 3 5 -17 12 -4 35 15 28 11 -4 11 -2 2 14 -11 16 -9 22 7 34 11 9 16 16 11
16 -6 0 -1 7 10 16 10 8 13 12 6 9 -11 -6 -11 -3 -1 13 7 12 17 19 21 16 4 -3
5 3 1 12 -5 13 -3 15 7 9 10 -6 12 -4 7 8 -4 12 -1 17 11 17 11 0 13 3 6 8 -8
5 -7 16 6 39 9 18 20 29 24 26 4 -4 4 1 0 11 -5 12 -4 17 3 13 5 -3 9 4 8 16
-2 32 -23 30 -90 -12z"/>
<path d="M1075 779 c-4 -6 -5 -12 -2 -15 2 -3 7 2 10 11 7 17 1 20 -8 4z"/>
</g>
</svg>
