<?xml version="1.0" standalone="no"?>
<!DOCTYPE svg PUBLIC "-//W3C//DTD SVG 20010904//EN"
 "http://www.w3.org/TR/2001/REC-SVG-20010904/DTD/svg10.dtd">
<svg version="1.0" xmlns="http://www.w3.org/2000/svg"
 width="227.000000pt" height="227.000000pt" viewBox="0 0 227.000000 227.000000"
 preserveAspectRatio="xMidYMid meet">
<metadata>
Created by potrace 1.14, written by Peter Selinger 2001-2017
</metadata>
<g transform="translate(0.000000,227.000000) scale(0.100000,-0.100000)"
fill="#000000" stroke="none">
<path d="M1545 1835 c-77 -14 -221 -69 -228 -88 -2 -7 -2 -20 1 -29 4 -15 7
-16 31 -4 78 41 205 69 306 69 105 0 242 -31 318 -70 28 -14 28 -14 25 14 -2
23 -13 33 -58 55 -112 54 -268 75 -395 53z"/>
<path d="M540 1823 c-42 -7 -132 -33 -187 -55 -43 -16 -53 -25 -53 -43 l0 -24
88 31 c77 28 102 32 217 34 132 4 195 -6 312 -49 40 -15 43 -15 40 1 -1 9 -6
22 -10 29 -7 11 -123 52 -192 68 -34 8 -177 13 -215 8z"/>
<path d="M1152 1268 c0 -304 1 -286 -26 -313 -15 -15 -31 -22 -44 -19 -21 6
-36 -24 -22 -46 11 -18 86 -3 116 24 36 31 42 78 43 339 l0 227 -33 0 -33 0
-1 -212z"/>
<path d="M564 559 c5 -53 23 -79 64 -96 35 -15 84 -18 331 -24 74 -2 88 -5
108 -25 13 -13 23 -34 23 -46 0 -21 5 -24 40 -24 38 0 41 2 50 37 14 51 41 58
220 61 150 2 219 10 257 29 24 13 43 56 43 98 0 24 -3 26 -42 26 -40 0 -43 -2
-45 -29 -4 -55 -18 -60 -190 -63 -204 -4 -236 -9 -266 -37 -25 -23 -26 -23
-42 -6 -28 31 -65 38 -206 40 -183 2 -218 6 -240 26 -10 9 -19 29 -19 43 0 25
-3 27 -45 27 l-44 0 3 -37z"/>
</g>
</svg>
